<?xml version="1.0" encoding="UTF-8"?>
<svg version="1.1" xmlns="http://www.w3.org/2000/svg" width="1024" height="1024">
<path d="M0 0 C337.92 0 675.84 0 1024 0 C1024 337.92 1024 675.84 1024 1024 C686.08 1024 348.16 1024 0 1024 C0 686.08 0 348.16 0 0 Z " fill="#339A88" transform="translate(0,0)"/>
<path d="M0 0 C3.09329934 0.00314803 6.18562737 -0.02034868 9.27880859 -0.0456543 C22.914827 -0.08896239 36.04902692 1.06449867 49.49365234 3.31567383 C50.61336426 3.498479 51.73307617 3.68128418 52.88671875 3.86962891 C84.28351399 9.3998419 116.01771381 21.49740312 142.49365234 39.31567383 C143.67063732 40.06786965 144.84910969 40.81774156 146.02880859 41.56567383 C168.83257195 56.17958344 189.72766013 75.05766106 206.49365234 96.31567383 C207.45658203 97.46036133 207.45658203 97.46036133 208.43896484 98.62817383 C217.88436745 109.94736076 228.17098775 123.82745045 231.68505859 138.27661133 C231.95189453 138.94950195 232.21873047 139.62239258 232.49365234 140.31567383 C233.48365234 140.64567383 234.47365234 140.97567383 235.49365234 141.31567383 C236.77490234 143.35473633 236.77490234 143.35473633 237.99365234 145.94067383 C238.39583984 146.77856445 238.79802734 147.61645508 239.21240234 148.47973633 C258.2555057 190.63001997 274.81920557 254.33901414 259.49365234 300.31567383 C259.16031229 301.99918115 258.85051457 303.6874156 258.55615234 305.37817383 C256.82373172 315.09756308 254.75328181 324.70471649 252.49365234 334.31567383 C251.83365234 334.31567383 251.17365234 334.31567383 250.49365234 334.31567383 C250.45626953 334.88415039 250.41888672 335.45262695 250.38037109 336.03833008 C249.92720136 341.36085304 248.83638912 345.44998975 246.49365234 350.31567383 C244.69703491 354.32351271 243.15339572 357.96136755 242.49365234 362.31567383 C241.83365234 362.31567383 241.17365234 362.31567383 240.49365234 362.31567383 C240.39052734 362.97567383 240.28740234 363.63567383 240.18115234 364.31567383 C238.69470895 370.80197226 236.20301154 376.14134251 232.48193359 381.65161133 C231.32344167 383.27970563 231.32344167 383.27970563 231.49365234 385.31567383 C230.83365234 385.31567383 230.17365234 385.31567383 229.49365234 385.31567383 C229.34927734 386.09942383 229.20490234 386.88317383 229.05615234 387.69067383 C228.49365234 390.31567383 228.49365234 390.31567383 227.49365234 392.31567383 C226.83365234 392.31567383 226.17365234 392.31567383 225.49365234 392.31567383 C225.49365234 393.30567383 225.49365234 394.29567383 225.49365234 395.31567383 C224.83365234 395.31567383 224.17365234 395.31567383 223.49365234 395.31567383 C223.22552734 396.01692383 222.95740234 396.71817383 222.68115234 397.44067383 C220.79097851 402.01688416 219.08873691 405.87689728 215.49365234 409.31567383 C214.31790523 411.41557035 214.31790523 411.41557035 213.49365234 413.31567383 C212.83365234 413.31567383 212.17365234 413.31567383 211.49365234 413.31567383 C210.83365234 414.96567383 210.17365234 416.61567383 209.49365234 418.31567383 C208.83365234 418.31567383 208.17365234 418.31567383 207.49365234 418.31567383 C207.12240234 419.15098633 207.12240234 419.15098633 206.74365234 420.00317383 C205.26440416 422.73978296 203.55897795 424.99218252 201.49365234 427.31567383 C200.83365234 427.31567383 200.17365234 427.31567383 199.49365234 427.31567383 C199.24615234 428.03754883 198.99865234 428.75942383 198.74365234 429.50317383 C196.23238508 435.15352517 192.07483856 438.61440117 187.45849609 442.53442383 C185.64558269 444.17793976 184.13821449 445.84132116 182.61865234 447.75317383 C181.91740234 448.59879883 181.21615234 449.44442383 180.49365234 450.31567383 C179.83365234 450.31567383 179.17365234 450.31567383 178.49365234 450.31567383 C178.49365234 450.97567383 178.49365234 451.63567383 178.49365234 452.31567383 C176.83517057 453.32919047 175.16699273 454.32688178 173.49365234 455.31567383 C172.15477508 456.64344008 170.82207474 457.97744758 169.49365234 459.31567383 C167.97361237 460.59188486 166.4316536 461.84245545 164.86865234 463.06567383 C163.70462891 463.98606445 163.70462891 463.98606445 162.51708984 464.92504883 C160.49365234 466.31567383 160.49365234 466.31567383 158.49365234 466.31567383 C158.16365234 467.30567383 157.83365234 468.29567383 157.49365234 469.31567383 C154.43115234 470.50317383 154.43115234 470.50317383 151.49365234 471.31567383 C151.49365234 471.97567383 151.49365234 472.63567383 151.49365234 473.31567383 C149.83227539 474.54907227 149.83227539 474.54907227 147.50537109 475.92504883 C146.23487915 476.68253418 146.23487915 476.68253418 144.9387207 477.45532227 C144.02872314 477.98673828 143.11872559 478.5181543 142.18115234 479.06567383 C141.26793213 479.60482422 140.35471191 480.14397461 139.41381836 480.69946289 C136.77964002 482.24856662 134.13864939 483.78513008 131.49365234 485.31567383 C130.84074219 485.6946582 130.18783203 486.07364258 129.51513672 486.46411133 C121.10252734 491.31567383 121.10252734 491.31567383 117.49365234 491.31567383 C117.49365234 491.97567383 117.49365234 492.63567383 117.49365234 493.31567383 C111.39201261 495.9277125 105.32128181 498.47917585 98.99365234 500.49145508 C94.46585905 501.98421193 90.00474084 503.67595814 85.53271484 505.32739258 C82.49365234 506.31567383 82.49365234 506.31567383 79.49365234 506.31567383 C79.49365234 506.97567383 79.49365234 507.63567383 79.49365234 508.31567383 C78.74680176 508.46190186 77.99995117 508.60812988 77.23046875 508.75878906 C73.85926669 509.42058632 70.48895711 510.08682272 67.11865234 510.75317383 C65.94302734 510.98327148 64.76740234 511.21336914 63.55615234 511.45043945 C61.87392578 511.78398438 61.87392578 511.78398438 60.15771484 512.12426758 C59.1208252 512.32850342 58.08393555 512.53273926 57.015625 512.74316406 C54.51573986 513.2054165 54.51573986 513.2054165 52.49365234 514.31567383 C46.50547551 515.21723948 40.53865196 515.42761827 34.49365234 515.31567383 C34.16365234 515.97567383 33.83365234 516.63567383 33.49365234 517.31567383 C-39.60205078 517.95043945 -39.60205078 517.95043945 -65.50634766 509.31567383 C-65.50634766 508.65567383 -65.50634766 507.99567383 -65.50634766 507.31567383 C-66.80572266 507.40848633 -66.80572266 507.40848633 -68.13134766 507.50317383 C-71.99913385 507.28829682 -74.08407567 506.06173096 -77.50634766 504.31567383 C-79.83882526 503.97640436 -82.17220237 503.64327317 -84.50634766 503.31567383 C-86.92124293 502.44310425 -89.17773322 501.40869693 -91.50634766 500.31567383 C-91.50634766 499.65567383 -91.50634766 498.99567383 -91.50634766 498.31567383 C-92.78509766 498.17129883 -94.06384766 498.02692383 -95.38134766 497.87817383 C-97.7632766 497.60924637 -99.35087457 497.39341037 -101.50634766 496.31567383 C-101.50634766 495.65567383 -101.50634766 494.99567383 -101.50634766 494.31567383 C-106.45634766 492.83067383 -106.45634766 492.83067383 -111.50634766 491.31567383 C-111.50634766 490.65567383 -111.50634766 489.99567383 -111.50634766 489.31567383 C-113.81634766 488.65567383 -116.12634766 487.99567383 -118.50634766 487.31567383 C-118.50634766 486.65567383 -118.50634766 485.99567383 -118.50634766 485.31567383 C-119.51826172 485.06817383 -120.53017578 484.82067383 -121.57275391 484.56567383 C-125.56234534 483.42378018 -128.95422319 481.52723836 -132.44384766 479.31567383 C-133.3265332 478.78200195 -133.3265332 478.78200195 -134.22705078 478.23754883 C-135.69335827 477.32472558 -137.10584514 476.32656286 -138.50634766 475.31567383 C-138.50634766 474.65567383 -138.50634766 473.99567383 -138.50634766 473.31567383 C-139.14572266 473.19192383 -139.78509766 473.06817383 -140.44384766 472.94067383 C-141.46478516 472.63129883 -141.46478516 472.63129883 -142.50634766 472.31567383 C-142.83634766 471.65567383 -143.16634766 470.99567383 -143.50634766 470.31567383 C-145.19447871 469.35575617 -146.88408013 468.39823153 -148.58447266 467.46020508 C-151.54799862 465.69534104 -153.97556108 463.6612809 -156.50634766 461.31567383 C-156.50634766 460.65567383 -156.50634766 459.99567383 -156.50634766 459.31567383 C-157.30685547 459.22092773 -157.30685547 459.22092773 -158.12353516 459.12426758 C-161.54899868 457.96185619 -163.94689095 455.71931119 -166.63134766 453.37817383 C-167.19813232 452.89034424 -167.76491699 452.40251465 -168.34887695 451.89990234 C-173.62329165 447.30949596 -178.92238742 442.60326679 -183.50634766 437.31567383 C-183.50634766 436.65567383 -183.50634766 435.99567383 -183.50634766 435.31567383 C-184.16634766 435.31567383 -184.82634766 435.31567383 -185.50634766 435.31567383 C-186.96294742 433.70184435 -188.34683717 432.02204167 -189.69384766 430.31567383 C-192.34636211 426.97099712 -195.0293327 423.71452066 -197.87744141 420.53442383 C-208.45860144 408.50525552 -217.23522241 394.56411024 -224.50634766 380.31567383 C-224.94575684 379.45603027 -225.38516602 378.59638672 -225.83789062 377.71069336 C-234.37565648 360.82672354 -241.06431016 343.78628684 -245.66650391 325.43676758 C-246.35657831 322.87225851 -247.1538675 320.56142884 -248.19384766 318.12817383 C-249.82014245 314.05369332 -249.98981803 310.02409928 -250.26025391 305.67504883 C-250.7907161 298.43381894 -251.88359552 291.21948012 -253.02709961 284.05126953 C-253.50482841 280.32751591 -253.65166543 276.75592843 -253.67431641 273.00317383 C-253.6785965 272.3209375 -253.68287659 271.63870117 -253.68728638 270.93579102 C-253.6972541 268.72901801 -253.69733828 266.52246508 -253.69384766 264.31567383 C-253.69291107 263.55657715 -253.69197449 262.79748047 -253.69100952 262.01538086 C-253.57817287 219.74443536 -244.81966837 179.71198283 -225.74462891 141.81567383 C-224.39840701 139.26039885 -224.39840701 139.26039885 -223.50634766 136.12817383 C-222.47764946 133.23496015 -221.60153925 132.41086543 -219.50634766 130.31567383 C-219.21759766 129.36692383 -218.92884766 128.41817383 -218.63134766 127.44067383 C-217.28764032 123.70815345 -215.28486423 122.0941904 -212.50634766 119.31567383 C-212.01134766 117.83067383 -212.01134766 117.83067383 -211.50634766 116.31567383 C-210.25249853 112.55412645 -208.36434463 111.04376185 -205.50634766 108.31567383 C-202.09828611 104.21260219 -199.29400591 100.38070556 -197.50634766 95.31567383 C-196.84634766 94.65567383 -196.18634766 93.99567383 -195.50634766 93.31567383 C-194.51634766 93.31567383 -193.52634766 93.31567383 -192.50634766 93.31567383 C-192.09690918 92.42513306 -192.09690918 92.42513306 -191.67919922 91.51660156 C-190.54010728 89.37902583 -189.38135019 87.8687664 -187.74072266 86.10083008 C-187.18771484 85.50367188 -186.63470703 84.90651367 -186.06494141 84.29125977 C-185.1696875 83.34428223 -185.1696875 83.34428223 -184.25634766 82.37817383 C-183.63373047 81.71720703 -183.01111328 81.05624023 -182.36962891 80.37524414 C-169.58952368 66.94584785 -155.73199023 54.95235868 -140.29931641 44.65551758 C-138.37464736 43.42625147 -138.37464736 43.42625147 -137.50634766 41.31567383 C-136.68134766 41.00629883 -135.85634766 40.69692383 -135.00634766 40.37817383 C-134.18134766 40.02754883 -133.35634766 39.67692383 -132.50634766 39.31567383 C-132.17634766 38.32567383 -131.84634766 37.33567383 -131.50634766 36.31567383 C-129.57275391 35.06958008 -129.57275391 35.06958008 -127.06884766 33.87817383 C-126.15103516 33.44118164 -125.23322266 33.00418945 -124.28759766 32.55395508 C-121.06709586 31.12010807 -117.80459913 29.84804939 -114.51416016 28.58520508 C-112.21041287 27.61284421 -110.03157691 26.58959271 -107.81103516 25.45239258 C-85.76518313 14.26196821 -60.9299286 6.21416565 -36.50634766 2.31567383 C-34.83523926 2.04291626 -34.83523926 2.04291626 -33.13037109 1.76464844 C-22.09108068 0.16521385 -11.1429192 -0.02360418 0 0 Z " fill="#46B386" transform="translate(506.50634765625,256.684326171875)"/>
<path d="M0 0 C0.78375 0.04125 1.5675 0.0825 2.375 0.125 C2.375 0.455 2.375 0.785 2.375 1.125 C5.345 1.62 5.345 1.62 8.375 2.125 C8.705 1.465 9.035 0.805 9.375 0.125 C9.375 0.785 9.375 1.445 9.375 2.125 C10.11105469 2.11339844 10.84710937 2.10179687 11.60546875 2.08984375 C13.06919922 2.07630859 13.06919922 2.07630859 14.5625 2.0625 C15.52542969 2.05089844 16.48835937 2.03929687 17.48046875 2.02734375 C20.23076513 2.12013378 22.69979591 2.50388315 25.375 3.125 C25.705 2.465 26.035 1.805 26.375 1.125 C26.9628125 1.805625 26.9628125 1.805625 27.5625 2.5 C29.30839098 4.26634108 29.30839098 4.26634108 31.75 5 C36.95152752 7.22922608 40.26890021 11.51816868 42.53005981 16.59428406 C46.53689116 28.59531341 44.52104436 44.12777883 44.5078125 56.63671875 C44.50848759 58.89964305 44.50945932 61.16256728 44.51071167 63.42549133 C44.51217809 68.14475197 44.51006763 72.86399355 44.50537109 77.58325195 C44.4996646 83.60829268 44.50296538 89.63328894 44.50894356 95.65832806 C44.51256937 100.32280305 44.51140148 104.98726762 44.50881577 109.65174294 C44.50815259 111.87272967 44.50895341 114.09371738 44.51129532 116.31470299 C44.51385627 119.42426411 44.50993355 122.53375463 44.50439453 125.64331055 C44.50641876 126.54489395 44.50844299 127.44647736 44.51052856 128.37538147 C44.4412852 149.53145435 44.4412852 149.53145435 37.6484375 157.03125 C29.01175436 165.15179669 20.58055732 166.83178723 8.9375 166.8125 C7.77412109 166.85310547 6.61074219 166.89371094 5.41210938 166.93554688 C-3.31779817 166.96993593 -8.03544762 164.70367795 -14.625 159.125 C-16.11 158.1659375 -16.11 158.1659375 -17.625 157.1875 C-23.09983298 151.54157849 -21.87081962 141.91236902 -21.77612305 134.62207031 C-21.76826782 133.38862381 -21.7604126 132.15517731 -21.75231934 130.88435364 C-21.72873966 127.52293685 -21.69600436 124.16185696 -21.65879035 120.80058002 C-21.6216919 117.27512955 -21.59560783 113.74959577 -21.56806946 110.22406006 C-21.5202478 104.30961283 -21.46450666 98.39528288 -21.40356445 92.48095703 C-21.33319484 85.64630463 -21.27341348 78.81162545 -21.21970528 71.97682309 C-21.16235118 64.68897962 -21.09761887 57.4012156 -21.03054833 50.11345577 C-21.01172874 48.01673782 -20.9942509 45.92001219 -20.9770565 43.82328033 C-20.94457769 39.91890462 -20.90380238 36.01463975 -20.86206055 32.11035156 C-20.85316299 30.94975723 -20.84426544 29.7891629 -20.83509827 28.59339905 C-20.82241913 27.53086411 -20.80973999 26.46832916 -20.79667664 25.37359619 C-20.78310135 23.98990026 -20.78310135 23.98990026 -20.76925182 22.57825089 C-20.63485951 20.292678 -20.26631046 18.31652356 -19.625 16.125 C-18.965 16.125 -18.305 16.125 -17.625 16.125 C-17.3775 15.568125 -17.13 15.01125 -16.875 14.4375 C-15.39575182 11.70089087 -13.69032561 9.44849131 -11.625 7.125 C-10.965 7.125 -10.305 7.125 -9.625 7.125 C-9.625 6.465 -9.625 5.805 -9.625 5.125 C-7.98166496 4.08710419 -6.31256133 3.08932076 -4.625 2.125 C-2.625 0.125 -2.625 0.125 0 0 Z M20.375 0.125 C22.355 1.115 22.355 1.115 24.375 2.125 C23.055 2.125 21.735 2.125 20.375 2.125 C20.375 1.465 20.375 0.805 20.375 0.125 Z " fill="#289B90" transform="translate(590.625,500.875)"/>
<path d="M0 0 C4.08101855 5.44135807 2.36190216 12.95507543 1.4465332 19.39892578 C0.77413194 23.76768739 0.01916676 28.12021235 -0.76342773 32.47045898 C-1.25291099 35.20375508 -1.72013752 37.94024785 -2.18554688 40.67773438 C-2.49347573 42.42991927 -2.80267503 44.18188148 -3.11328125 45.93359375 C-3.25091385 46.74509384 -3.38854645 47.55659393 -3.53034973 48.39268494 C-4.32780837 52.73406617 -5.22741684 56.14224832 -7.9375 59.75 C-10.82611709 61.19430855 -12.73397701 61.12688506 -15.9375 60.75 C-18.64502583 58.73333253 -20.60053831 57.11783461 -21.43139648 53.74511719 C-21.65205132 51.46526993 -21.73272236 49.227747 -21.75 46.9375 C-21.77513672 46.14923828 -21.80027344 45.36097656 -21.82617188 44.54882812 C-21.88472981 42.61641627 -21.91405488 40.68315673 -21.9375 38.75 C-26.48513641 39.11726755 -28.79175446 42.42542944 -31.625 45.625 C-32.15681885 46.21361816 -32.6886377 46.80223633 -33.23657227 47.40869141 C-37.14490768 51.76801122 -40.87350287 56.25827384 -44.54296875 60.8203125 C-48.9863291 66.25672402 -53.63429199 71.51876601 -58.24804688 76.81054688 C-60.9841775 79.95156157 -63.71047161 83.10108354 -66.4375 86.25 C-69.69784215 90.01291483 -72.95895067 93.77515805 -76.22265625 97.53515625 C-85.3916703 108.10093769 -94.5200799 118.70056453 -103.5625 129.375 C-104.00859619 129.9014209 -104.45469238 130.4278418 -104.91430664 130.97021484 C-107.22000814 133.69738865 -109.5089012 136.43704833 -111.77734375 139.1953125 C-112.2347998 139.75009277 -112.69225586 140.30487305 -113.16357422 140.87646484 C-114.42587533 142.40995085 -115.68378005 143.94705273 -116.94140625 145.484375 C-119.61877939 148.52327211 -120.47728519 148.68652209 -124.5625 149.25 C-128.33969547 149.20342024 -129.97602708 148.23087551 -132.71875 145.6796875 C-133.41178223 145.04321289 -134.10481445 144.40673828 -134.81884766 143.75097656 C-135.51800293 143.0906543 -136.2171582 142.43033203 -136.9375 141.75 C-137.59153809 141.14381836 -138.24557617 140.53763672 -138.91943359 139.91308594 C-140.89348552 138.07710383 -142.85414447 136.22770614 -144.8125 134.375 C-149.98282547 129.50530259 -155.18147666 124.67883712 -160.484375 119.953125 C-162.38342356 118.24761005 -164.26646117 116.52942551 -166.140625 114.796875 C-166.6881543 114.29124023 -167.23568359 113.78560547 -167.79980469 113.26464844 C-168.86988412 112.27496853 -169.93831818 111.28350581 -171.00488281 110.29003906 C-175.52375071 106.11483423 -178.18143361 105.20640459 -184.2890625 105.28515625 C-189.09244576 106.12822794 -191.65331504 109.35967218 -194.9375 112.75 C-196.5529858 114.2188658 -198.17848035 115.67678009 -199.8125 117.125 C-200.658125 117.888125 -201.50375 118.65125 -202.375 119.4375 C-204.85015331 121.67117493 -207.33118312 123.89817716 -209.8125 126.125 C-213.49596589 129.4401193 -217.1603631 132.77543496 -220.8125 136.125 C-221.30782227 136.57907227 -221.80314453 137.03314453 -222.31347656 137.50097656 C-224.98028132 139.94769686 -227.64139361 142.40036853 -230.296875 144.859375 C-231.11696045 145.61661865 -231.11696045 145.61661865 -231.95361328 146.38916016 C-233.00582289 147.36089728 -234.05635152 148.33445857 -235.10498047 149.31005859 C-238.32613627 152.28115532 -239.87701656 153.65180709 -244.3125 154.0625 C-247.9375 153.75 -247.9375 153.75 -250.375 152.25 C-252.08035281 149.52143551 -252.92909071 147.34720478 -252.77734375 144.09375 C-250.79386164 138.5584511 -245.24174884 134.54753171 -240.9375 130.75 C-240.18984375 130.08613281 -239.4421875 129.42226563 -238.671875 128.73828125 C-237.37685536 127.60386444 -236.07502849 126.47715847 -234.765625 125.359375 C-232.90812012 123.72413566 -231.17143991 122.01518207 -229.4375 120.25 C-227.10724555 117.87775898 -224.71645594 115.65886483 -222.1875 113.5 C-218.77911476 110.5672034 -215.59351536 107.44926326 -212.4375 104.25 C-208.81577765 100.57905275 -205.11795955 97.09634164 -201.1640625 93.78515625 C-199.27957616 92.06266961 -197.56629911 90.30598444 -195.8359375 88.43359375 C-195.27632324 87.8391748 -194.71670898 87.24475586 -194.14013672 86.63232422 C-193.02766185 85.44328096 -191.93194733 84.23827083 -190.85595703 83.01611328 C-187.90280478 79.88714546 -186.3690828 78.84020081 -182.03125 77.93359375 C-176.6397102 78.38181387 -173.53711502 82.04492751 -169.9375 85.75 C-169.2775 86.39839844 -168.6175 87.04679687 -167.9375 87.71484375 C-165.23960652 90.37585197 -162.59091529 93.08382269 -159.9375 95.7890625 C-156.02614137 99.74625736 -152.01006547 103.48510884 -147.79443359 107.11572266 C-145.15071344 109.44244666 -142.71159883 111.91840397 -140.25 114.4375 C-134.32798752 120.96516823 -134.32798752 120.96516823 -126.5625 124.375 C-118.49230403 122.9835869 -114.10817326 115.69287833 -109.2578125 109.609375 C-107.06280146 106.9044119 -104.7872254 104.32077971 -102.4375 101.75 C-99.36096328 98.37539052 -96.42631783 94.93184136 -93.5625 91.375 C-90.31797483 87.36173716 -86.95002817 83.52584616 -83.4375 79.75 C-79.22353881 75.21607379 -75.25524933 70.53759542 -71.37109375 65.71875 C-68.51670977 62.23667645 -65.58056318 58.83370604 -62.625 55.4375 C-62.07521484 54.80529541 -61.52542969 54.17309082 -60.95898438 53.52172852 C-59.84148143 52.23715431 -58.72380513 50.9527309 -57.60595703 49.66845703 C-44.63770232 37.16668483 -44.63770232 37.16668483 -36.9375 22.75 C-38.17886719 22.80800781 -39.42023438 22.86601562 -40.69921875 22.92578125 C-42.34110814 22.97269238 -43.98303832 23.01819109 -45.625 23.0625 C-46.44162109 23.10439453 -47.25824219 23.14628906 -48.09960938 23.18945312 C-52.53101138 23.27915762 -54.34917742 23.20087109 -57.98046875 20.41796875 C-59.9375 17.75 -59.9375 17.75 -60.5625 14.75 C-59.71728801 10.69298246 -58.09813516 9.38785333 -54.9375 6.75 C-51.63867188 5.66333008 -51.63867188 5.66333008 -47.90625 5.01953125 C-47.23388306 4.89817307 -46.56151611 4.77681488 -45.86877441 4.65177917 C-43.7277987 4.27003911 -41.58329568 3.91601911 -39.4375 3.5625 C-38.02833059 3.31493883 -36.61947164 3.06560359 -35.2109375 2.81445312 C-5.64781883 -2.40332716 -5.64781883 -2.40332716 0 0 Z " fill="#EDF3F0" transform="translate(637.9375,393.25)"/>
<path d="M0 0 C0 0.66 0 1.32 0 2 C0.66 2.33 1.32 2.66 2 3 C3.32421875 5.1796875 3.32421875 5.1796875 4.6875 7.875 C5.14511719 8.75929688 5.60273437 9.64359375 6.07421875 10.5546875 C7 13 7 13 6 16 C5.99557265 18.96927377 6.05058844 21.90942283 6.15625 24.875 C6.209668 26.68359279 6.26305231 28.49218657 6.31640625 30.30078125 C6.40676113 33.13987813 6.49930138 35.97889132 6.59326172 38.81787109 C7.21717136 58.07138544 7.21717136 58.07138544 6.22412109 65.82543945 C5.96857331 68.30492102 6.02817481 70.69862457 6.125 73.1875 C6.16164736 80.92009396 3.4977771 86.49895069 -1.86499023 92.05493164 C-9.8971821 99.37253857 -18.42495898 99.70558455 -28.875 99.4375 C-30.17953125 99.43169922 -31.4840625 99.42589844 -32.828125 99.41992188 C-43.25374269 99.28557113 -43.25374269 99.28557113 -47 97 C-47 96.34 -47 95.68 -47 95 C-48.12148438 94.63648438 -48.12148438 94.63648438 -49.265625 94.265625 C-52.36689641 92.83017938 -53.68095278 91.4415924 -55.75 88.75 C-56.34296875 88.00234375 -56.9359375 87.2546875 -57.546875 86.484375 C-60.2765981 81.81742906 -60.11919982 76.73911779 -60.0534668 71.44726562 C-60.0398259 70.16573608 -60.026185 68.88420654 -60.01213074 67.56384277 C-59.99156038 66.17797252 -59.97057973 64.7921083 -59.94921875 63.40625 C-59.92996149 61.9718858 -59.91090653 60.53751886 -59.89204407 59.10314941 C-59.85117955 56.10401652 -59.80597698 53.10498511 -59.75805664 50.10595703 C-59.69742723 46.27297784 -59.65051474 42.43996724 -59.60722637 38.60675812 C-59.5717793 35.64688102 -59.52755618 32.68718207 -59.48087502 29.72746277 C-59.45991333 28.31459207 -59.44198657 26.9016728 -59.4272213 25.48872375 C-59.4055181 23.5099394 -59.37037736 21.53131641 -59.3347168 19.55273438 C-59.31837692 18.42943726 -59.30203705 17.30614014 -59.28520203 16.14880371 C-58.98520202 12.83662128 -58.17244289 10.10205384 -57 7 C-56.34 7 -55.68 7 -55 7 C-54.7525 6.2575 -54.505 5.515 -54.25 4.75 C-51.59571659 -1.0894235 -47.60030528 -2.88466999 -41.86181641 -5.11987305 C-37.08817366 -6.5879657 -32.40338447 -6.7565296 -27.4375 -6.875 C-26.46103516 -6.92140625 -25.48457031 -6.9678125 -24.47851562 -7.015625 C-14.83565929 -7.3510287 -7.45836651 -6.34754596 0 0 Z " fill="#31A3A1" transform="translate(540,568)"/>
<path d="M0 0 C0.99451172 -0.01611328 1.98902344 -0.03222656 3.01367188 -0.04882812 C12.21538871 -0.05486996 19.70790681 1.75156662 26.9609375 7.57421875 C33.27948913 13.93565648 33.81271611 22.10087187 33.8203125 30.66796875 C33.82190369 31.36332733 33.82349487 32.05868591 33.82513428 32.77511597 C33.82769354 35.01681144 33.82153335 37.25832256 33.8125 39.5 C33.80961975 40.26238983 33.8067395 41.02477966 33.80377197 41.81027222 C33.78371169 46.319029 33.74790424 50.82747944 33.70385742 55.33605957 C33.68929126 57.09606533 33.68476223 58.85614767 33.68164062 60.61621094 C33.6238299 77.45647389 33.6238299 77.45647389 28.57421875 83.58203125 C19.78853623 91.64012101 12.73850031 92.5573436 1.125 92.6875 C-0.7322168 92.74357422 -0.7322168 92.74357422 -2.62695312 92.80078125 C-10.7568336 92.87824967 -16.43755006 91.73460848 -23.3125 87.3125 C-23.3125 86.6525 -23.3125 85.9925 -23.3125 85.3125 C-24.3025 84.9825 -25.2925 84.6525 -26.3125 84.3125 C-27.4453125 82.60546875 -27.4453125 82.60546875 -28.4375 80.5 C-28.77007812 79.81292969 -29.10265625 79.12585938 -29.4453125 78.41796875 C-30.99484434 74.65581713 -31.44633826 71.30480592 -31.50537109 67.24365234 C-31.52143402 66.23515228 -31.53749695 65.22665222 -31.55404663 64.18759155 C-31.59879034 59.57282374 -31.63957587 54.95819616 -31.66259766 50.34326172 C-31.67912671 47.91673166 -31.70637593 45.49024967 -31.74462891 43.06396484 C-31.79968857 39.5502009 -31.82131886 36.03757607 -31.8359375 32.5234375 C-31.85860687 31.45016205 -31.88127625 30.3768866 -31.90463257 29.27108765 C-31.8808403 20.6941859 -29.63311214 14.2394848 -24.06640625 7.65625 C-22.98166016 6.74359375 -22.98166016 6.74359375 -21.875 5.8125 C-21.15441406 5.1834375 -20.43382812 4.554375 -19.69140625 3.90625 C-13.49513131 -0.24494898 -7.20454555 -0.0230767 0 0 Z " fill="#3FB5A6" transform="translate(423.3125,573.6875)"/>
<path d="M0 0 C3.09329934 0.00314803 6.18562737 -0.02034868 9.27880859 -0.0456543 C22.914827 -0.08896239 36.04902692 1.06449867 49.49365234 3.31567383 C50.61336426 3.498479 51.73307617 3.68128418 52.88671875 3.86962891 C55.43789367 4.31899135 57.96368959 4.82250387 60.49365234 5.37817383 C61.40824219 5.57878418 62.32283203 5.77939453 63.26513672 5.98608398 C81.77189005 10.28776969 100.68992833 16.41264812 117.49365234 25.31567383 C113.96828348 26.49079678 113.51257333 26.15466033 110.27490234 24.65551758 C109.43515869 24.27685547 108.59541504 23.89819336 107.73022461 23.50805664 C106.37562134 22.88688965 106.37562134 22.88688965 104.99365234 22.25317383 C84.15488664 13.04231434 62.11006846 6.99081833 39.41552734 4.67504883 C36.49365234 4.31567383 36.49365234 4.31567383 34.49365234 3.31567383 C1.04309702 0.06297877 -33.81058181 2.33532211 -66.06884766 12.06567383 C-66.93509766 12.32662842 -67.80134766 12.58758301 -68.69384766 12.85644531 C-76.77477225 15.33130263 -84.65039395 18.20763531 -92.50634766 21.31567383 C-93.46927734 21.67918945 -94.43220703 22.04270508 -95.42431641 22.41723633 C-103.3580394 25.52806142 -110.80604018 29.53239924 -118.2980957 33.5703125 C-119.60774292 34.27184448 -119.60774292 34.27184448 -120.94384766 34.98754883 C-121.72630859 35.41132813 -122.50876953 35.83510742 -123.31494141 36.27172852 C-125.3827596 37.25679877 -127.26996037 37.85336826 -129.50634766 38.31567383 C-108.75075436 19.80750146 -74.24268544 10.38745579 -47.63134766 4.50317383 C-46.75373779 4.30828369 -45.87612793 4.11339355 -44.97192383 3.91259766 C-29.95469052 0.76777972 -15.29931606 -0.03240872 0 0 Z " fill="#8DEFAA" transform="translate(506.50634765625,256.684326171875)"/>
<path d="M0 0 C1.32 0.33 2.64 0.66 4 1 C4.06058594 2.19238281 4.12117187 3.38476562 4.18359375 4.61328125 C4.26801149 6.17969925 4.35265887 7.74610488 4.4375 9.3125 C4.47681641 10.09818359 4.51613281 10.88386719 4.55664062 11.69335938 C4.59853516 12.45068359 4.64042969 13.20800781 4.68359375 13.98828125 C4.72025146 14.68477783 4.75690918 15.38127441 4.79467773 16.09887695 C4.95581153 18.2216572 4.95581153 18.2216572 6 21 C4.515 20.505 4.515 20.505 3 20 C1.49843126 16.99686252 1.90718796 14.20932478 1.9375 10.875 C1.94652344 9.59367187 1.95554687 8.31234375 1.96484375 6.9921875 C1.97644531 6.00476563 1.98804688 5.01734375 2 4 C-2.47641132 6.76986155 -5.82340876 9.67763027 -9.375 13.625 C-10.08934204 14.41668579 -10.08934204 14.41668579 -10.81811523 15.22436523 C-14.36751666 19.19408266 -17.69441659 23.31470365 -20.9765625 27.5078125 C-23.99340563 31.22353821 -27.25790313 34.69988876 -30.5 38.21875 C-32.90530815 40.89465532 -35.18229249 43.63459924 -37.4375 46.4375 C-40.67747162 50.4559807 -44.04774751 54.28726148 -47.5625 58.0625 C-51.61192663 62.41327931 -55.38811537 66.90545169 -59.05078125 71.5859375 C-61.05249741 74.06501683 -63.15516033 76.40556361 -65.3125 78.75 C-69.97117047 83.85273784 -74.19757303 89.24219332 -78.421875 94.703125 C-80.87439721 97.86665109 -83.42821417 100.93281154 -86 104 C-86.47566406 104.60328125 -86.95132813 105.2065625 -87.44140625 105.828125 C-89.69896892 108.69137521 -91.54752927 110.72130714 -95 112 C-93.36140256 108.13957552 -90.78134651 105.1955752 -88.0625 102.0625 C-87.06369485 100.89722732 -86.06499998 99.73186011 -85.06640625 98.56640625 C-84.55609863 97.97359863 -84.04579102 97.38079102 -83.52001953 96.77001953 C-81.164178 94.02670904 -78.83276087 91.26293323 -76.5 88.5 C-75.58083115 87.41397618 -74.66156008 86.32803886 -73.7421875 85.2421875 C-71.93243688 83.10362484 -70.12533339 80.96286835 -68.3203125 78.8203125 C-61.83211843 71.12457376 -55.26111157 63.50382711 -48.65722656 55.90722656 C-45.93493818 52.77426887 -43.21763563 49.63699351 -40.5 46.5 C-37.22909145 42.72435812 -33.95705835 38.94972243 -30.6796875 35.1796875 C-25.51633519 29.23654498 -20.37674452 23.27791901 -15.3125 17.25 C-10.35988018 11.35773123 -5.22312674 5.65366647 0 0 Z " fill="#398B69" transform="translate(613,431)"/>
<path d="M0 0 C2.69808166 2.69808166 3.09304866 5.64661629 3.9375 9.25 C4.11007324 9.96945801 4.28264648 10.68891602 4.46044922 11.43017578 C4.81300707 12.91183195 5.1616274 14.39443045 5.50634766 15.87792969 C5.94588357 17.76736894 6.39968166 19.65347755 6.85546875 21.5390625 C10.68538017 38.14182571 11.37426239 54.71837389 11.3125 71.6875 C11.31167419 72.648909 11.31084839 73.61031799 11.30999756 74.6008606 C11.23861894 110.72558098 11.23861894 110.72558098 6 122 C5.34 121.34 4.68 120.68 4 120 C4.29205384 116.4369432 4.78296161 113.05806217 5.5 109.5625 C6.08261779 106.57658384 6.40566641 103.59882986 6.71875 100.57421875 C6.94506552 98.50280306 7.22564088 96.43735275 7.5234375 94.375 C8.15236435 89.35469075 8.15031014 84.36594764 8.125 79.3125 C8.12089111 78.3028418 8.11678223 77.29318359 8.11254883 76.25292969 C7.94522852 53.23109423 7.67625666 28.83969828 0.76953125 6.72265625 C0 4 0 4 0 0 Z " fill="#1A8665" transform="translate(760,443)"/>
<path d="M0 0 C7.15201179 4.30135177 12.8995927 10.75681138 18.6953125 16.69140625 C21.65485227 19.65596219 24.77187113 22.33328485 28 25 C27.34 25.33 26.68 25.66 26 26 C25.34 25.67 24.68 25.34 24 25 C24 24.34 24 23.68 24 23 C23.42121094 22.73832031 22.84242188 22.47664062 22.24609375 22.20703125 C19.86429369 20.92707261 18.07683354 19.48643946 16.0625 17.6875 C15.01449219 16.75164063 15.01449219 16.75164063 13.9453125 15.796875 C11.56317072 13.59650308 9.29289619 11.29289619 7 9 C3.8783878 5.95975683 1.16736849 3.4470773 -2.9375 1.875 C-10.83435345 2.19732055 -15.57777936 7.25041239 -20.78515625 12.70703125 C-23.36711804 15.38006753 -26.10687092 17.78546278 -28.921875 20.20703125 C-34.20596566 24.76604932 -39.37294623 29.46160907 -44.45703125 34.2421875 C-45.04460205 34.79237549 -45.63217285 35.34256348 -46.23754883 35.90942383 C-47.39894963 36.99874989 -48.55644992 38.09225176 -49.7097168 39.19018555 C-53.77727768 43 -53.77727768 43 -56 43 C-56 42.34 -56 41.68 -56 41 C-54.54882812 39.5546875 -54.54882812 39.5546875 -52.53125 37.875 C-48.04393773 34.05920453 -43.76793112 30.05803287 -39.5 26 C-34.70023768 21.43629156 -29.85686018 16.95526042 -24.85253906 12.61621094 C-21.27619308 9.49609887 -17.80942038 6.25603941 -14.3203125 3.0390625 C-9.94793466 -0.80333015 -5.63758318 -1.17546316 0 0 Z " fill="#409571" transform="translate(461,498)"/>
<path d="M0 0 C0.495 0.99 0.495 0.99 1 2 C-3.38248861 7.44961941 -7.78849367 12.83146925 -12.5 18 C-16.3513623 22.23116792 -19.98611838 26.60028086 -23.58984375 31.04296875 C-26.34686486 34.42557002 -29.13215842 37.78243597 -31.9375 41.125 C-32.4104248 41.69387939 -32.88334961 42.26275879 -33.37060547 42.84887695 C-36.4977784 46.56274978 -37.74423067 47.82679044 -42.625 48.5 C-48.32746788 48.42794716 -51.16773625 44.81752428 -55 41 C-56.49110849 39.6774072 -57.99081976 38.36443366 -59.5 37.0625 C-60.66666667 36.04166667 -61.83333333 35.02083333 -63 34 C-61.515 33.505 -61.515 33.505 -60 33 C-59.34644531 33.67095703 -59.34644531 33.67095703 -58.6796875 34.35546875 C-52.13730032 41.36626303 -52.13730032 41.36626303 -44 46.125 C-40.60878074 45.9836992 -39.14023501 45.14567015 -36.6875 42.83984375 C-33.76852877 39.65735428 -31.07636003 36.29956367 -28.3828125 32.92578125 C-25.3384371 29.18768752 -22.11174659 25.63992222 -18.84765625 22.09375 C-16.86054661 19.93666737 -16.86054661 19.93666737 -15 17 C-14.34 17 -13.68 17 -13 17 C-12.7525 16.27425781 -12.505 15.54851562 -12.25 14.80078125 C-10.87572546 11.72154736 -9.25344071 9.68533961 -7 7.1875 C-5.948125 6.00220703 -5.948125 6.00220703 -4.875 4.79296875 C-3 3 -3 3 -1 3 C-0.67 2.01 -0.34 1.02 0 0 Z " fill="#CBEEE1" transform="translate(556,494)"/>
<path d="M0 0 C0.33 0 0.66 0 1 0 C1.9276975 5.53272098 2.17435458 10.89515834 2.203125 16.5 C2.21000336 17.40560165 2.21688171 18.31120331 2.22396851 19.24424744 C2.24110705 22.16287263 2.24742635 25.08132711 2.25 28 C2.25167175 28.98888214 2.25334351 29.97776428 2.25506592 30.99661255 C2.25879568 67.68215713 2.25879568 67.68215713 -3 79 C-3.66 78.34 -4.32 77.68 -5 77 C-4.70794616 73.4369432 -4.21703839 70.05806217 -3.5 66.5625 C-3.05782845 64.2963708 -2.79116806 62.10720403 -2.5625 59.8125 C-2.2329347 56.59587832 -1.69822173 53.52576315 -0.97705078 50.37548828 C0.12916057 44.93424298 0.25659156 39.71662429 0.1953125 34.1796875 C0.1924826 33.19501495 0.18965271 32.21034241 0.18673706 31.1958313 C0.17565195 28.08875739 0.15056991 24.98198496 0.125 21.875 C0.11495509 19.75260837 0.1058319 17.63021216 0.09765625 15.5078125 C0.07575099 10.33842769 0.04130328 5.16926474 0 0 Z " fill="#075B51" transform="translate(769,486)"/>
<path d="M0 0 C0.33 0.99 0.66 1.98 1 3 C-0.43359375 5.26171875 -0.43359375 5.26171875 -2.4375 7.6875 C-3.09621094 8.49574219 -3.75492188 9.30398438 -4.43359375 10.13671875 C-5.20896484 11.05904297 -5.20896484 11.05904297 -6 12 C-9.415759 10.55661511 -11.36026263 8.75105832 -13.75 5.9375 C-14.36359375 5.22464844 -14.9771875 4.51179688 -15.609375 3.77734375 C-17 2 -17 2 -17 1 C-11.27959989 0.1679418 -5.77759884 -0.12036664 0 0 Z " fill="#339864" transform="translate(601,415)"/>
<path d="M0 0 C-2.95255527 1.96837018 -5.38987745 2.92918426 -8.734375 4.05859375 C-9.86617188 4.44466797 -10.99796875 4.83074219 -12.1640625 5.22851562 C-13.34742188 5.62748047 -14.53078125 6.02644531 -15.75 6.4375 C-26.31101423 10.01029345 -36.36444167 14.10694254 -46.4375 18.875 C-47.79198242 19.50728516 -47.79198242 19.50728516 -49.17382812 20.15234375 C-54.16171365 22.51445608 -58.80512095 25.012274 -63.32836914 28.18408203 C-65 29 -65 29 -68 28 C-51.50290259 18.55900877 -35.09886174 10.22561169 -17.125 3.9375 C-16.0009375 3.54296631 -14.876875 3.14843262 -13.71875 2.74194336 C-12.12933594 2.20259155 -12.12933594 2.20259155 -10.5078125 1.65234375 C-9.56566895 1.33257568 -8.62352539 1.01280762 -7.65283203 0.68334961 C-4.98473662 -0.00393173 -2.74171198 -0.13134136 0 0 Z " fill="#9EF6C0" transform="translate(445,266)"/>
<path d="M0 0 C2.75007076 -0.02750071 5.49985467 -0.04707451 8.25 -0.0625 C9.38695312 -0.07506836 9.38695312 -0.07506836 10.546875 -0.08789062 C14.79104776 -0.10557468 18.9337543 0.06754338 23.15625 0.5 C33.15419294 1.4002622 43.22158186 1.10410844 53.25 1.0625 C55.36328019 1.05747533 57.47656154 1.05291413 59.58984375 1.04882812 C64.72659142 1.03789833 69.86328274 1.0206869 75 1 C75 1.33 75 1.66 75 2 C68.49775068 3.17102397 62.08234807 3.16159427 55.48828125 3.16796875 C54.28366745 3.17129715 53.07905365 3.17462555 51.8379364 3.17805481 C49.29373556 3.1831062 46.74952812 3.18546369 44.20532227 3.18530273 C40.34314853 3.1874827 36.48126365 3.20563996 32.61914062 3.22460938 C30.1380218 3.22754509 27.65690163 3.22952869 25.17578125 3.23046875 C24.03474442 3.23765427 22.89370758 3.24483978 21.71809387 3.25224304 C14.29438286 3.23143517 7.28084752 2.44619961 0 1 C0 0.67 0 0.34 0 0 Z " fill="#2C8595" transform="translate(465,772)"/>
<path d="M0 0 C0.495 0.99 0.495 0.99 1 2 C-1.66666667 5.33333333 -4.33333333 8.66666667 -7 12 C-8.05960938 13.40185547 -8.05960938 13.40185547 -9.140625 14.83203125 C-9.75421875 15.54746094 -10.3678125 16.26289063 -11 17 C-11.66 17 -12.32 17 -13 17 C-13.25007812 17.55558594 -13.50015625 18.11117188 -13.7578125 18.68359375 C-15.21338559 21.39791716 -16.95209007 23.65704853 -18.875 26.0625 C-19.89207031 27.34833984 -19.89207031 27.34833984 -20.9296875 28.66015625 C-23.97402881 32.10083633 -25.99134662 33.76584832 -30.5 34.8125 C-33.8929705 34.99426628 -35.25129997 34.86911602 -38 33 C-37.67 32.34 -37.34 31.68 -37 31 C-36.67 31.33 -36.34 31.66 -36 32 C-32.788875 32.4495575 -30.20805047 32.67606494 -27.296875 31.046875 C-22.65532063 27.27290089 -19.05143556 22.53974992 -15.33984375 17.8828125 C-12.37218754 14.22650151 -9.22680393 10.75706512 -6.04296875 7.2890625 C-3.93468885 4.92682154 -1.95661814 2.4886424 0 0 Z " fill="#D3F6E5" transform="translate(544,485)"/>
<path d="M0 0 C8.91697967 -0.57874628 17.32844237 1.17490254 26 3 C26.8132373 3.16580566 27.62647461 3.33161133 28.46435547 3.50244141 C30.95778973 4.01170792 33.44795715 4.53456579 35.9375 5.0625 C37.11892578 5.30564941 37.11892578 5.30564941 38.32421875 5.55371094 C40.23159135 5.97052596 42.11887295 6.47734715 44 7 C44.495 7.99 44.495 7.99 45 9 C45.70511719 8.9484375 46.41023437 8.896875 47.13671875 8.84375 C50.54017061 9.02947725 52.75171201 10.02492145 55.8125 11.5 C56.78832031 11.9640625 57.76414062 12.428125 58.76953125 12.90625 C59.50558594 13.2671875 60.24164062 13.628125 61 14 C57.60297563 15.13234146 56.95500366 14.88386318 53.703125 13.7421875 C52.40556274 13.30169067 52.40556274 13.30169067 51.08178711 12.85229492 C50.14729736 12.5297876 49.21280762 12.20728027 48.25 11.875 C32.55395016 6.66645119 16.40596537 3.10978825 0 1 C0 0.67 0 0.34 0 0 Z " fill="#47B081" transform="translate(543,258)"/>
<path d="M0 0 C5.10962983 4.23837244 9.73956923 8.69572568 14.25 13.5625 C14.86101563 14.20896484 15.47203125 14.85542969 16.1015625 15.52148438 C21.30598204 21.10657653 24.23422761 25.18912158 25 33 C21.9026939 30.10691188 19.68831785 27.14533532 17.4375 23.5625 C13.894304 18.12426131 9.97579343 13.22781364 5.68139648 8.36547852 C3.33387657 5.68698987 1.50788239 3.21727505 0 0 Z " fill="#0E6450" transform="translate(704,342)"/>
<path d="M0 0 C0.66 0 1.32 0 2 0 C0.46428335 3.4118241 -1.54254399 6.14472955 -3.875 9.0625 C-4.89207031 10.34833984 -4.89207031 10.34833984 -5.9296875 11.66015625 C-7.82246684 13.79935403 -9.65112624 15.3937074 -12 17 C-10.59132499 12.71239355 -8.51792965 10.08082102 -5.4375 6.8125 C-2.35814202 3.65811063 -2.35814202 3.65811063 0 0 Z M-16 19 C-15.34 19.33 -14.68 19.66 -14 20 C-15.40893147 21.63171123 -16.82745958 23.25513945 -18.25 24.875 C-19.03890625 25.77992188 -19.8278125 26.68484375 -20.640625 27.6171875 C-22.74691403 29.74439993 -24.25651526 30.90512306 -27 32 C-25.46356148 28.31930113 -23.21849055 26.01224796 -20.375 23.25 C-19.55773437 22.45078125 -18.74046875 21.6515625 -17.8984375 20.828125 C-16.95871094 19.92320312 -16.95871094 19.92320312 -16 19 Z M-29 32 C-28.01 32.495 -28.01 32.495 -27 33 C-27.99 33.495 -27.99 33.495 -29 34 C-29 33.34 -29 32.68 -29 32 Z M-31 34 C-30.34 34.33 -29.68 34.66 -29 35 C-30.98 36.32 -32.96 37.64 -35 39 C-33.25 35.125 -33.25 35.125 -31 34 Z " fill="#0E5E67" transform="translate(714,675)"/>
<path d="M0 0 C0.66 0.33 1.32 0.66 2 1 C1.21496094 1.90621094 0.42992187 2.81242188 -0.37890625 3.74609375 C-6.09932332 10.37117305 -11.68529621 17.04230982 -17 24 C-22.01688849 30.52477352 -22.01688849 30.52477352 -26 32 C-24.36142495 28.13962826 -21.78149069 25.19544488 -19.0625 22.0625 C-18.07536748 20.91158984 -17.08839318 19.76054398 -16.1015625 18.609375 C-15.59270508 18.01833984 -15.08384766 17.42730469 -14.55957031 16.81835938 C-11.52458591 13.27976141 -8.53066624 9.70623237 -5.52954102 6.13891602 C-3.74219736 4.02231611 -1.95995839 1.95995839 0 0 Z " fill="#2D8365" transform="translate(544,511)"/>
<path d="M0 0 C0.66 0.33 1.32 0.66 2 1 C-8.23 11.23 -18.46 21.46 -29 32 C-29 28.46395468 -28.54436681 28.13832022 -26.2109375 25.6640625 C-25.30226929 24.69436523 -25.30226929 24.69436523 -24.37524414 23.70507812 C-23.71516357 23.01865234 -23.05508301 22.33222656 -22.375 21.625 C-21.70654053 20.92052734 -21.03808105 20.21605469 -20.34936523 19.49023438 C-13.83792327 12.69674968 -6.99275218 6.2923995 0 0 Z " fill="#96F3BF" transform="translate(344,318)"/>
<path d="M0 0 C0 0.33 0 0.66 0 1 C-0.89195068 1.14099121 -1.78390137 1.28198242 -2.70288086 1.42724609 C-6.05236177 1.95806785 -9.40142383 2.49139983 -12.75024414 3.02636719 C-14.1921444 3.25619569 -15.63419881 3.48505949 -17.07641602 3.71289062 C-31.58035222 4.9808585 -31.58035222 4.9808585 -44 11 C-43.875 9.1875 -43.875 9.1875 -43 7 C-38.42068114 3.74627344 -33.82879305 3.52296354 -28.390625 3.2109375 C-25.98652223 3.14612287 -25.98652223 3.14612287 -24 2 C-22.0682593 1.6347669 -20.12942657 1.30649396 -18.1875 1 C-13.75239004 0.29573783 -13.75239004 0.29573783 -9.3515625 -0.58984375 C-6.09779256 -1.15736176 -3.22846586 -0.56972927 0 0 Z " fill="#58BD80" transform="translate(623,393)"/>
<path d="M0 0 C2.69802099 2.69802099 3.09319554 5.64659919 3.9375 9.25 C4.10862305 9.96438232 4.27974609 10.67876465 4.45605469 11.41479492 C4.80701768 12.89135572 5.15415873 14.36882994 5.49755859 15.84716797 C5.96024712 17.82966916 6.44212274 19.8076664 6.92578125 21.78515625 C8.60670562 28.97887523 9.40692296 35.61510187 9 43 C8.67 41.68 8.34 40.36 8 39 C7.34 39 6.68 39 6 39 C5.90203125 37.73027344 5.8040625 36.46054687 5.703125 35.15234375 C4.88165573 25.42371925 3.63954989 16.32172664 0.8046875 6.96875 C0 4 0 4 0 0 Z " fill="#0F6D56" transform="translate(760,443)"/>
<path d="M0 0 C3.53487117 0.59177531 5.37265076 1.91607012 8 4.3125 C8.69867188 4.94027344 9.39734375 5.56804688 10.1171875 6.21484375 C12 8 12 8 14.125 10.375 C16.79475451 12.68878725 18.4748923 13.07050215 22 13 C25.47432871 10.63745648 27.63323628 8.45845465 30.25 5.1875 C31.11625 4.1046875 31.11625 4.1046875 32 3 C32.66 3 33.32 3 34 3 C32.65263662 5.93440199 31.11433035 8.25073427 29 10.6875 C28.484375 11.28949219 27.96875 11.89148438 27.4375 12.51171875 C25.11162299 14.9197599 23.79268173 15.02859562 20.375 15.5 C14.66943691 15.42790805 11.83713767 11.81500034 8 8 C6.50774795 6.69938991 5.00799346 5.40732543 3.5 4.125 C2.31282452 3.10676872 1.13874663 2.07211784 0 1 C0 0.67 0 0.34 0 0 Z " fill="#C7ECDD" transform="translate(493,527)"/>
<path d="M0 0 C2.60461139 1.79647867 4.6380337 3.96898077 6.75 6.3125 C7.30042969 6.89451172 7.85085938 7.47652344 8.41796875 8.07617188 C9.47921864 9.19977338 10.53364468 10.32987199 11.58007812 11.46728516 C13.33644028 13.36316577 15.15713054 15.18844142 17 17 C14 17 14 17 12.40600586 15.73071289 C11.84792236 15.1505542 11.28983887 14.57039551 10.71484375 13.97265625 C9.79541992 13.03196289 9.79541992 13.03196289 8.85742188 12.07226562 C8.22384766 11.40904297 7.59027344 10.74582031 6.9375 10.0625 C5.67793483 8.7596333 4.416311 7.45875274 3.15234375 6.16015625 C2.59538818 5.57886963 2.03843262 4.99758301 1.46459961 4.39868164 C-1.33448883 1.72557317 -4.08037338 1.55945324 -7.890625 1.56640625 C-11.7639131 2.36258214 -13.53763968 5.04516762 -16 8 C-16.66 7.67 -17.32 7.34 -18 7 C-16.39211076 3.50047636 -15.17486734 2.10286314 -11.8125 0.125 C-7.55368881 -1.13169838 -4.21258662 -1.33285188 0 0 Z " fill="#5BB685" transform="translate(462,471)"/>
<path d="M0 0 C0.33 0 0.66 0 1 0 C2.69556346 10.41852246 1.00894787 19.78501081 -1 30 C-1.99 30 -2.98 30 -4 30 C-3.51624521 25.27567134 -2.93156299 20.65781496 -2 16 C-1.72823752 13.76645209 -1.49003275 11.53054843 -1.25390625 9.29296875 C-0.90951862 6.18288353 -0.46092416 3.09477648 0 0 Z " fill="#11685D" transform="translate(768,534)"/>
<path d="M0 0 C4.91309819 4.04227028 9.38083126 8.32039316 13.6875 13 C14.24244141 13.59039062 14.79738281 14.18078125 15.36914062 14.7890625 C18.65210798 18.33357422 21.4344517 21.90511025 24 26 C23.34 26.33 22.68 26.66 22 27 C20.58298411 25.2711195 19.16640314 23.54188254 17.75 21.8125 C16.96109375 20.84957031 16.1721875 19.88664062 15.359375 18.89453125 C13.86052221 17.05570688 12.381397 15.2004848 10.9296875 13.32421875 C9.18895819 11.22759135 7.5175685 9.66119849 5.375 8 C2.48555699 5.61172376 0.98358524 3.71576646 0 0 Z " fill="#4DC07F" transform="translate(691,330)"/>
<path d="M0 0 C0 3 0 3 -1.6875 5.015625 C-2.450625 5.75296875 -3.21375 6.4903125 -4 7.25 C-4.81984375 8.04277344 -5.6396875 8.83554687 -6.484375 9.65234375 C-11.48462891 14.31872978 -16.60887835 18.78818621 -22 23 C-21.44841898 19.29305107 -20.11773346 17.89657629 -17.25 15.5625 C-14.89609559 13.5967394 -12.67177272 11.67177272 -10.5 9.5 C-7.15364457 6.15364457 -3.5848801 3.08673299 0 0 Z " fill="#60BF8A" transform="translate(442,480)"/>
<path d="M0 0 C2.63618263 2.31267875 3.75770154 4.40430745 4.97265625 7.67578125 C5.31490234 8.58650391 5.65714844 9.49722656 6.00976562 10.43554688 C6.53086914 11.85963867 6.53086914 11.85963867 7.0625 13.3125 C7.41376953 14.25029297 7.76503906 15.18808594 8.12695312 16.15429688 C13.29336568 30.01278348 13.29336568 30.01278348 13 35 C11.37052616 31.89896481 10.11132692 28.75273918 8.90625 25.46484375 C8.51566406 24.40845703 8.12507812 23.35207031 7.72265625 22.26367188 C6.90628699 20.04278233 6.09118647 17.82142601 5.27734375 15.59960938 C4.88675781 14.54451172 4.49617187 13.48941406 4.09375 12.40234375 C3.73990234 11.43804443 3.38605469 10.47374512 3.02148438 9.48022461 C2.01913894 6.81632815 2.01913894 6.81632815 0 4 C0 2.68 0 1.36 0 0 Z " fill="#0F6952" transform="translate(747,408)"/>
<path d="M0 0 C0 3 0 3 -1.6875 5.015625 C-2.450625 5.75296875 -3.21375 6.4903125 -4 7.25 C-4.8146875 8.03890625 -5.629375 8.8278125 -6.46875 9.640625 C-9.90823558 12.84656526 -13.43058501 15.94050144 -17 19 C-18.96822886 20.96822886 -18.66248381 24.34808709 -19 27 C-19.33 27 -19.66 27 -20 27 C-20.68369221 23.70584664 -20.89683362 22.18651497 -20 19 C-16.7294006 14.87491968 -12.93955961 11.47942732 -9 8 C-8.18273437 7.26652344 -7.36546875 6.53304687 -6.5234375 5.77734375 C-4.6998203 4.16261361 -2.85552344 2.57769105 -1 1 C-0.67 0.67 -0.34 0.34 0 0 Z " fill="#DCFDF0" transform="translate(406,516)"/>
<path d="M0 0 C0.66 0 1.32 0 2 0 C0.16243766 8.4258956 -2.47122526 16.13348239 -6 24 C-7.20846032 20.26107242 -6.51484187 18.55826725 -4.8359375 15.015625 C-3.37020061 11.4814183 -2.72185394 7.74514807 -2 4 C-1.34 4 -0.68 4 0 4 C0 2.68 0 1.36 0 0 Z " fill="#106460" transform="translate(759,587)"/>
<path d="M0 0 C-2.26444197 2.26444197 -3.18694854 2.41656163 -6.25 3 C-9.0417872 3.56372626 -11.5459124 4.18896968 -14.25 5.125 C-17.00696072 6.00221477 -19.12905232 6.16887928 -22 6 C-21 4 -21 4 -18.33984375 2.9296875 C-12.01680447 0.96961792 -6.6271116 -0.51977346 0 0 Z " fill="#12616F" transform="translate(577,767)"/>
<path d="M0 0 C5.29012124 4.40843437 10.18808428 9.07559794 15 14 C13.02 14.99 13.02 14.99 11 16 C9.34908416 13.89965153 7.70418762 11.79504167 6.0625 9.6875 C5.59392578 9.09259766 5.12535156 8.49769531 4.64257812 7.88476562 C2.61444041 5.27299116 1.05369199 3.16107597 0 0 Z " fill="#0A6057" transform="translate(322,693)"/>
<path d="M0 0 C0.66 0.33 1.32 0.66 2 1 C-0.58137532 4.01160454 -3.44956744 5.2881843 -7 7 C-9.84201461 8.62226585 -12.68207726 10.24684986 -15.51171875 11.890625 C-18 13 -18 13 -21 12 C-20.34 12 -19.68 12 -19 12 C-19 11.34 -19 10.68 -19 10 C-18.38253906 9.69707031 -17.76507812 9.39414062 -17.12890625 9.08203125 C-11.90794387 6.49936341 -6.81607015 3.80458469 -1.8125 0.8203125 C-1.214375 0.54960938 -0.61625 0.27890625 0 0 Z " fill="#136472" transform="translate(643,738)"/>
<path d="M0 0 C-1 2 -1 2 -3.5 2.9375 C-4.655 3.288125 -5.81 3.63875 -7 4 C-8.56382694 4.51683548 -10.1262781 5.03784794 -11.6875 5.5625 C-15.34375 6.78125 -15.34375 6.78125 -19 8 C-19 7.01 -19 6.02 -19 5 C-16.77417611 4.15665671 -14.54503974 3.32521449 -12.3125 2.5 C-11.68666016 2.26152344 -11.06082031 2.02304687 -10.41601562 1.77734375 C-6.81807701 0.4587275 -3.83479747 -0.29329235 0 0 Z " fill="#136372" transform="translate(608,757)"/>
<path d="M0 0 C0.99 0.33 1.98 0.66 3 1 C-2.28 5.95 -7.56 10.9 -13 16 C-13.33 15.01 -13.66 14.02 -14 13 C-13.07316406 12.14535156 -12.14632813 11.29070313 -11.19140625 10.41015625 C-9.98176077 9.29428174 -8.7721259 8.17839573 -7.5625 7.0625 C-6.64500977 6.21655273 -6.64500977 6.21655273 -5.70898438 5.35351562 C-5.12568359 4.81533203 -4.54238281 4.27714844 -3.94140625 3.72265625 C-3.40201416 3.22515869 -2.86262207 2.72766113 -2.30688477 2.21508789 C-1.52614632 1.48918929 -0.75381738 0.75381738 0 0 Z " fill="#64C093" transform="translate(401,518)"/>
<path d="M0 0 C0.66 0 1.32 0 2 0 C1.7834375 0.9590625 1.7834375 0.9590625 1.5625 1.9375 C0.97202576 4.83149498 0.97202576 4.83149498 0.8515625 7.125 C0.46279251 12.60480561 -0.48194732 15.73569372 -4 20 C-4.66 20.33 -5.32 20.66 -6 21 C-5.71125 20.34 -5.4225 19.68 -5.125 19 C-3.28937471 14.10499922 -2.1765714 9.23599978 -1.4375 4.0625 C-1 1 -1 1 0 0 Z " fill="#348C66" transform="translate(635,434)"/>
<path d="M0 0 C3.48336459 3.14352414 5.58752783 6.44513045 7.8125 10.5625 C8.43769531 11.69816406 9.06289063 12.83382813 9.70703125 14.00390625 C11 17 11 17 10 20 C7.00299184 17.46608639 5.87400651 14.73653049 4.4375 11.125 C3.81681641 9.58199219 3.81681641 9.58199219 3.18359375 8.0078125 C2.79300781 7.01523437 2.40242187 6.02265625 2 5 C1.33372276 3.33317762 0.66719674 1.66645454 0 0 Z " fill="#1B7B57" transform="translate(731,378)"/>
<path d="M0 0 C0.66 0 1.32 0 2 0 C2.06058594 1.12019531 2.12117187 2.24039062 2.18359375 3.39453125 C2.26801424 4.86719984 2.35266149 6.33985544 2.4375 7.8125 C2.47681641 8.55048828 2.51613281 9.28847656 2.55664062 10.04882812 C2.74381035 13.23071342 2.98720793 15.96162378 4 19 C3.01 18.67 2.02 18.34 1 18 C-0.5134957 14.97300861 -0.41493128 11.76461781 -0.625 8.4375 C-0.6765625 7.73947266 -0.728125 7.04144531 -0.78125 6.32226562 C-0.89810559 4.55052869 -0.95389642 2.77498773 -1 1 C-0.67 0.67 -0.34 0.34 0 0 Z " fill="#2F8A60" transform="translate(615,433)"/>
<path d="M0 0 C0.66 0 1.32 0 2 0 C0.60809755 3.08549803 -1.04434111 5.37046979 -3.3125 7.875 C-6.28370859 11.19429997 -9.16512646 14.56378965 -12 18 C-12.66 17.67 -13.32 17.34 -14 17 C-13.61142822 16.5560791 -13.22285645 16.1121582 -12.82250977 15.65478516 C-11.06699155 13.6467519 -9.31471356 11.63591735 -7.5625 9.625 C-6.95083984 8.92632812 -6.33917969 8.22765625 -5.70898438 7.5078125 C-5.12568359 6.8375 -4.54238281 6.1671875 -3.94140625 5.4765625 C-3.13231812 4.549646 -3.13231812 4.549646 -2.30688477 3.60400391 C-0.91881263 2.01950866 -0.91881263 2.01950866 0 0 Z " fill="#DAF9EA" transform="translate(601,418)"/>
<path d="M0 0 C0.99 0 1.98 0 3 0 C1.25477062 4.05214179 -1.4228157 7.30603961 -4.125 10.75 C-4.59292969 11.35199219 -5.06085938 11.95398438 -5.54296875 12.57421875 C-6.69225007 14.05186616 -7.84571235 15.52626005 -9 17 C-9 13.64237115 -8.60537275 13.15484034 -6.625 10.625 C-4.53825462 7.84463221 -3.21521408 5.27173022 -2 2 C-1.34 1.34 -0.68 0.68 0 0 Z " fill="#82E1B4" transform="translate(311,350)"/>
<path d="M0 0 C2.94956528 1.36944102 5.52468811 2.87830409 8 5 C8 5.66 8 6.32 8 7 C8.556875 7.226875 9.11375 7.45375 9.6875 7.6875 C12.63246684 9.35896766 14.68156544 11.55276352 17 14 C16.67 14.66 16.34 15.32 16 16 C13.89197235 14.08743854 11.78855326 12.17019745 9.6875 10.25 C9.09259766 9.71117187 8.49769531 9.17234375 7.88476562 8.6171875 C4.93935086 5.91859521 2.24366544 3.3371486 0 0 Z " fill="#D1F5E6" transform="translate(471,506)"/>
<path d="M0 0 C0 0.33 0 0.66 0 1 C-1.66289063 1.27263672 -1.66289063 1.27263672 -3.359375 1.55078125 C-4.82301777 1.80410404 -6.28655404 2.0580427 -7.75 2.3125 C-8.47960937 2.43044922 -9.20921875 2.54839844 -9.9609375 2.66992188 C-14.03109895 3.3914505 -16.88808934 4.07644183 -20 7 C-19.875 5.1875 -19.875 5.1875 -19 3 C-12.91981487 -0.90869044 -6.97230447 -1.53050586 0 0 Z " fill="#67C48A" transform="translate(599,397)"/>
<path d="M0 0 C0.33 0.99 0.66 1.98 1 3 C-4.25442525 7.76636599 -9.50216911 12.51492743 -15 17 C-15.66 16.67 -16.32 16.34 -17 16 C-16.52054932 15.55084229 -16.04109863 15.10168457 -15.54711914 14.63891602 C-13.38541794 12.6136163 -11.22395592 10.58806149 -9.0625 8.5625 C-7.93038086 7.50192383 -7.93038086 7.50192383 -6.77539062 6.41992188 C-6.05673828 5.74638672 -5.33808594 5.07285156 -4.59765625 4.37890625 C-3.93258057 3.7557251 -3.26750488 3.13254395 -2.58227539 2.49047852 C-1.71180457 1.6705087 -0.8455974 0.8455974 0 0 Z " fill="#DBFCED" transform="translate(424,499)"/>
<path d="M0 0 C0.33 0.66 0.66 1.32 1 2 C-0.40769635 3.79872312 -1.82651003 5.58874968 -3.25 7.375 C-4.03890625 8.37273437 -4.8278125 9.37046875 -5.640625 10.3984375 C-7.75596965 12.73092018 -9.10691236 13.89850333 -12 15 C-10.56438314 11.81293058 -8.79733671 9.37830895 -6.5 6.75 C-5.8915625 6.04359375 -5.283125 5.3371875 -4.65625 4.609375 C-3 3 -3 3 -1 3 C-0.67 2.01 -0.34 1.02 0 0 Z " fill="#D5F2E5" transform="translate(556,494)"/>
<path d="M0 0 C-0.66 0.66 -1.32 1.32 -2 2 C-3.2375 1.9175 -4.475 1.835 -5.75 1.75 C-8.45826834 1.65115809 -9.62832288 1.73451634 -11.859375 3.328125 C-13.31684525 4.81335658 -14.6678422 6.40141063 -16 8 C-16.66 7.67 -17.32 7.34 -18 7 C-16.39211076 3.50047636 -15.17486734 2.10286314 -11.8125 0.125 C-7.23252786 -1.22646719 -4.63573315 -0.89461517 0 0 Z " fill="#64C290" transform="translate(462,471)"/>
<path d="M0 0 C1.32 1.65 2.64 3.3 4 5 C3.01 5 2.02 5 1 5 C0.95101562 5.85464844 0.90203125 6.70929688 0.8515625 7.58984375 C0.77679687 8.69457031 0.70203125 9.79929687 0.625 10.9375 C0.52058594 12.59072266 0.52058594 12.59072266 0.4140625 14.27734375 C0.27742187 15.17582031 0.14078125 16.07429688 0 17 C-0.66 17.33 -1.32 17.66 -2 18 C-2.23268915 11.71739294 -1.40454548 6.11980533 0 0 Z " fill="#2F8F5D" transform="translate(641,398)"/>
<path d="M0 0 C-2.49505962 2.49505962 -3.67328888 2.35948376 -7.125 2.625 C-8.03507813 2.69976563 -8.94515625 2.77453125 -9.8828125 2.8515625 C-10.93082031 2.92503906 -10.93082031 2.92503906 -12 3 C-12.33 2.01 -12.66 1.02 -13 0 C-4.57142857 -1.28571429 -4.57142857 -1.28571429 0 0 Z " fill="#156474" transform="translate(554,772)"/>
<path d="M0 0 C3.89917968 1.61537444 6.71293772 4.27924873 9.75 7.125 C10.25660156 7.59292969 10.76320313 8.06085937 11.28515625 8.54296875 C12.52719141 9.69126541 13.76411494 10.84508672 15 12 C14.01 12.495 14.01 12.495 13 13 C12.34 12.67 11.68 12.34 11 12 C11 11.34 11 10.68 11 10 C10.41734375 9.731875 9.8346875 9.46375 9.234375 9.1875 C6.97213399 7.98519009 5.19423682 6.66174087 3.25 5 C2.63640625 4.484375 2.0228125 3.96875 1.390625 3.4375 C0 2 0 2 0 0 Z " fill="#3A8C6B" transform="translate(474,511)"/>
<path d="M0 0 C2.0622048 -0.054348 4.12482816 -0.09294961 6.1875 -0.125 C7.33605469 -0.14820313 8.48460937 -0.17140625 9.66796875 -0.1953125 C12.91740372 -0.00484152 15.08660521 0.60639873 18 2 C18 2.33 18 2.66 18 3 C5.33029613 2.03644647 5.33029613 2.03644647 0 1 C0 0.67 0 0.34 0 0 Z " fill="#0F5C68" transform="translate(465,772)"/>
<path d="M0 0 C1.26977059 3.80931176 0.52074507 5.81618993 -0.4375 9.6875 C-0.86869141 11.45673828 -0.86869141 11.45673828 -1.30859375 13.26171875 C-1.65083984 14.61716797 -1.65083984 14.61716797 -2 16 C-2.33 16 -2.66 16 -3 16 C-3.37952295 9.80112515 -2.8352113 5.5522888 0 0 Z " fill="#349367" transform="translate(639,417)"/>
<path d="M0 0 C4.52615993 3.67832017 8.39424999 7.41086363 12 12 C8.83831632 10.56869725 6.37725517 8.82485862 3.75 6.5625 C3.04359375 5.96566406 2.3371875 5.36882812 1.609375 4.75390625 C0 3 0 3 0 0 Z " fill="#DEFEEE" transform="translate(468,480)"/>
<path d="M0 0 C7.77408638 -0.44850498 7.77408638 -0.44850498 11.5625 0.9375 C13.91890818 4.31843347 13.30108747 8.01059106 13 12 C12.67 12 12.34 12 12 12 C11.9175 10.906875 11.835 9.81375 11.75 8.6875 C11.32833013 5.06870972 11.32833013 5.06870972 9.375 3.125 C6.28702146 1.66227332 3.38274486 1.32526393 0 1 C0 0.67 0 0.34 0 0 Z " fill="#59BA81" transform="translate(628,391)"/>
<path d="M0 0 C0 3 0 3 -1.2421875 4.60546875 C-1.78101563 5.12753906 -2.31984375 5.64960938 -2.875 6.1875 C-3.40867187 6.71730469 -3.94234375 7.24710937 -4.4921875 7.79296875 C-6 9 -6 9 -8 9 C-8.33 9.99 -8.66 10.98 -9 12 C-9.99 11.67 -10.98 11.34 -12 11 C-8.04 7.37 -4.08 3.74 0 0 Z " fill="#D7FBEA" transform="translate(440,484)"/>
<path d="M0 0 C0.33 0.99 0.66 1.98 1 3 C-1.64 5.97 -4.28 8.94 -7 12 C-7.66 11.34 -8.32 10.68 -9 10 C-8.04882866 8.8274869 -7.08882991 7.66212985 -6.125 6.5 C-5.32449219 5.52546875 -5.32449219 5.52546875 -4.5078125 4.53125 C-4.01023437 4.0259375 -3.51265625 3.520625 -3 3 C-2.34 3 -1.68 3 -1 3 C-0.67 2.01 -0.34 1.02 0 0 Z " fill="#CFF2E3" transform="translate(581,465)"/>
<path d="M0 0 C0 3.63195496 -0.95453155 4.74713911 -3 7.6875 C-3.556875 8.49574219 -4.11375 9.30398438 -4.6875 10.13671875 C-5.120625 10.75160156 -5.55375 11.36648438 -6 12 C-6 8.52315744 -5.33598571 6.2063657 -4 3 C-1.875 1.125 -1.875 1.125 0 0 Z " fill="#7FE0B2" transform="translate(300,367)"/>
<path d="M0 0 C4.13621084 3.3810038 7.81316569 6.66590534 11 11 C8 11 8 11 5.95703125 9.1015625 C5.24933594 8.28429687 4.54164063 7.46703125 3.8125 6.625 C3.09707031 5.81289063 2.38164063 5.00078125 1.64453125 4.1640625 C0 2 0 2 0 0 Z " fill="#147556" transform="translate(704,342)"/>
<path d="M0 0 C-1.59766103 0.86627399 -3.20339944 1.71766465 -4.8125 2.5625 C-5.70582031 3.03816406 -6.59914063 3.51382813 -7.51953125 4.00390625 C-10 5 -10 5 -13 4 C-3.96186441 -1.18855932 -3.96186441 -1.18855932 0 0 Z " fill="#10606F" transform="translate(622,752)"/>
<path d="M0 0 C0.33 0.66 0.66 1.32 1 2 C-0.09346881 3.34212062 -1.2001575 4.67347975 -2.3125 6 C-3.23482422 7.11375 -3.23482422 7.11375 -4.17578125 8.25 C-6 10 -6 10 -9 10 C-6.03 6.7 -3.06 3.4 0 0 Z " fill="#D7FBE8" transform="translate(565,461)"/>
<path d="M0 0 C0.66 0.33 1.32 0.66 2 1 C-0.64 3.64 -3.28 6.28 -6 9 C-6.66 8.67 -7.32 8.34 -8 8 C-8 7.34 -8 6.68 -8 6 C-6.25 4.4921875 -6.25 4.4921875 -4 2.875 C-3.2575 2.33617187 -2.515 1.79734375 -1.75 1.2421875 C-1.1725 0.83226562 -0.595 0.42234375 0 0 Z " fill="#36936D" transform="translate(402,542)"/>
<path d="M0 0 C0.99 0.33 1.98 0.66 3 1 C1.35 4.3 -0.3 7.6 -2 11 C-3.28485596 5.86057616 -2.22194431 4.62164416 0 0 Z " fill="#0F6362" transform="translate(747,619)"/>
<path d="M0 0 C0.33 0.99 0.66 1.98 1 3 C-0.43359375 5.04296875 -0.43359375 5.04296875 -2.4375 7.1875 C-3.09621094 7.90292969 -3.75492188 8.61835938 -4.43359375 9.35546875 C-4.95050781 9.89816406 -5.46742188 10.44085938 -6 11 C-6.33 10.01 -6.66 9.02 -7 8 C-5.56640625 5.95703125 -5.56640625 5.95703125 -3.5625 3.8125 C-2.90378906 3.09707031 -2.24507812 2.38164062 -1.56640625 1.64453125 C-1.04949219 1.10183594 -0.53257812 0.55914062 0 0 Z " fill="#D8F7E9" transform="translate(605,437)"/>
<path d="M0 0 C0.66 0.33 1.32 0.66 2 1 C-1.465 3.97 -1.465 3.97 -5 7 C-5.66 6.67 -6.32 6.34 -7 6 C-4.74259377 3.66475218 -2.7194239 1.81294927 0 0 Z " fill="#0D5B68" transform="translate(654,731)"/>
<path d="M0 0 C3.625 -0.1875 3.625 -0.1875 7 0 C7.33 0.66 7.66 1.32 8 2 C4.7 2.33 1.4 2.66 -2 3 C-1.34 2.01 -0.68 1.02 0 0 Z " fill="#DAFAE9" transform="translate(628,392)"/>
<path d="M0 0 C6.625 -0.25 6.625 -0.25 10 2 C9.67 2.66 9.34 3.32 9 4 C6.03 3.01 3.06 2.02 0 1 C0 0.67 0 0.34 0 0 Z " fill="#1C6F76" transform="translate(422,760)"/>
<path d="M0 0 C0.33 0.99 0.66 1.98 1 3 C-0.9375 5.6875 -0.9375 5.6875 -3 8 C-3.99 7.67 -4.98 7.34 -6 7 C-4.02 4.69 -2.04 2.38 0 0 Z " fill="#CDF7E5" transform="translate(555,472)"/>
<path d="M0 0 C2.0625 0.4375 2.0625 0.4375 4 1 C2.71034824 2.37562854 1.37310707 3.70766393 0 5 C-0.66 5 -1.32 5 -2 5 C-1.125 1.125 -1.125 1.125 0 0 Z " fill="#41896C" transform="translate(613,431)"/>
<path d="M0 0 C0.66 0.33 1.32 0.66 2 1 C0.02 3.31 -1.96 5.62 -4 8 C-4.33 7.01 -4.66 6.02 -5 5 C-4.34 5 -3.68 5 -3 5 C-2.5359375 4.0409375 -2.5359375 4.0409375 -2.0625 3.0625 C-1 1 -1 1 0 0 Z " fill="#52B37B" transform="translate(590,429)"/>
</svg>
